<?xml version="1.0" encoding="UTF-8" standalone="no"?>
<svg
   xmlns:dc="http://purl.org/dc/elements/1.1/"
   xmlns:cc="http://creativecommons.org/ns#"
   xmlns:rdf="http://www.w3.org/1999/02/22-rdf-syntax-ns#"
   xmlns:svg="http://www.w3.org/2000/svg"
   xmlns="http://www.w3.org/2000/svg"
   xmlns:xlink="http://www.w3.org/1999/xlink"
   xmlns:sodipodi="http://sodipodi.sourceforge.net/DTD/sodipodi-0.dtd"
   xmlns:inkscape="http://www.inkscape.org/namespaces/inkscape"
   width="64"
   height="64"
   viewBox="0 0 16.933333 16.933334"
   version="1.1"
   id="svg8"
   inkscape:version="1.0.2 (e86c870879, 2021-01-15)"
   sodipodi:docname="ehmehicon.svg"
   inkscape:export-filename="C:\Users\bored\Pictures\ehmeh64.png"
   inkscape:export-xdpi="96"
   inkscape:export-ydpi="96">
  <defs
     id="defs2">
    <linearGradient
       inkscape:collect="always"
       id="linearGradient894">
      <stop
         style="stop-color:#000000;stop-opacity:1;"
         offset="0"
         id="stop890" />
      <stop
         style="stop-color:#a850ff;stop-opacity:1"
         offset="1"
         id="stop892" />
    </linearGradient>
    <linearGradient
       inkscape:collect="always"
       xlink:href="#linearGradient894"
       id="linearGradient900"
       x1="-312.16458"
       y1="144.9882"
       x2="-234.506"
       y2="144.9882"
       gradientUnits="userSpaceOnUse" />
  </defs>
  <sodipodi:namedview
     id="base"
     pagecolor="#ffffff"
     bordercolor="#666666"
     borderopacity="1.0"
     inkscape:pageopacity="0.0"
     inkscape:pageshadow="2"
     inkscape:zoom="1"
     inkscape:cx="19.944881"
     inkscape:cy="37.900734"
     inkscape:document-units="mm"
     inkscape:current-layer="layer1"
     inkscape:document-rotation="0"
     showgrid="false"
     units="px"
     inkscape:window-width="1920"
     inkscape:window-height="1017"
     inkscape:window-x="-8"
     inkscape:window-y="476"
     inkscape:window-maximized="1" />
  <metadata
     id="metadata5">
    <rdf:RDF>
      <cc:Work
         rdf:about="">
        <dc:format>image/svg+xml</dc:format>
        <dc:type
           rdf:resource="http://purl.org/dc/dcmitype/StillImage" />
        <dc:title></dc:title>
      </cc:Work>
    </rdf:RDF>
  </metadata>
  <g
     inkscape:label="Layer 1"
     inkscape:groupmode="layer"
     id="layer1">
    <g
       id="g912"
       transform="matrix(0.21804844,0,0,0.21804844,68.106286,-23.108503)">
      <circle
         style="fill:url(#linearGradient900);fill-opacity:1;stroke:none;stroke-width:1.73514;stroke-linecap:round;stroke-linejoin:round;stroke-miterlimit:4;stroke-dasharray:none;paint-order:markers fill stroke"
         id="path888"
         cx="-273.3353"
         cy="144.9882"
         r="38.829292" />
      <path
         id="circle853"
         style="fill:#ffffff;stroke:none;stroke-width:2.50189;stroke-linecap:round;stroke-linejoin:round;stroke-miterlimit:4;stroke-dasharray:none"
         d="m -255.4788,116.78003 a 6.4294519,6.4294519 0 0 0 -9.04855,0.0196 6.4294519,6.4294519 0 0 0 -0.6791,8.32088 l -8.40358,8.35744 -9.45573,-9.50794 a 6.4294519,6.4294519 0 0 0 -0.72542,-8.19659 6.4294519,6.4294519 0 0 0 -0.0439,-0.0442 6.4294519,6.4294519 0 0 0 -9.04853,0.0196 6.4294519,6.4294519 0 0 0 -0.025,9.09209 6.4294519,6.4294519 0 0 0 8.25039,0.73067 l 9.44686,9.49901 -16.87284,16.78019 -5.55966,-5.59036 a 6.4294519,6.4294519 0 0 0 -0.6499,-8.30311 6.4294519,6.4294519 0 0 0 -0.0439,-0.0442 6.4294519,6.4294519 0 0 0 -9.04855,0.0196 6.4294519,6.4294519 0 0 0 -0.025,9.09208 6.4294519,6.4294519 0 0 0 8.1957,0.76811 l 28.15028,28.30572 1.55641,-1.54785 6.85,-6.8124 -6.3995,-6.43484 -6.85001,6.81238 -9.70249,-9.75606 16.87283,-16.78019 9.69081,9.74432 -5.68442,5.6532 2.02605,2.03724 10.01071,-1.30302 1.60141,-1.59262 -20.98631,-21.1022 8.42183,-8.37557 a 6.4294519,6.4294519 0 0 0 7.33745,-0.006 l 10.99997,11.0607 -5.46953,5.4395 2.16758,2.17956 9.6426,-1.24339 1.59087,-1.58214 -17.34182,-17.43759 a 6.4294519,6.4294519 0 0 0 -0.7039,-8.22766 6.4294519,6.4294519 0 0 0 -0.0439,-0.0441 z m -1.28828,1.36907 a 4.5502871,4.5502871 0 0 1 -0.0181,6.43538 4.5502871,4.5502871 0 0 1 -6.43497,-0.0177 4.5502871,4.5502871 0 0 1 0.0177,-6.43497 4.5502871,4.5502871 0 0 1 6.43538,0.0174 z m -28.35634,-1.05084 a 4.5502871,4.5502871 0 0 1 -0.0181,6.43536 4.5502871,4.5502871 0 0 1 -6.43498,-0.0177 4.5502871,4.5502871 0 0 1 0.0177,-6.43497 4.5502871,4.5502871 0 0 1 6.43537,0.0173 z m -14.50267,22.18385 a 4.5502871,4.5502871 0 0 1 -0.0181,6.43538 4.5502871,4.5502871 0 0 1 -6.43496,-0.0177 4.5502871,4.5502871 0 0 1 0.0177,-6.43496 4.5502871,4.5502871 0 0 1 6.43538,0.0173 z" />
    </g>
  </g>
</svg>
